PathFileType	4	(X/Y/Z)	26_2_28_p1_0-575.trc
DataRate	CameraRate	NumFrames	NumMarkers	Units	OrigDataRate	OrigDataStartFrame	OrigNumFrames
53.0	53.0	7	27	m	53.0	288	576
Frame#	Time	RHip			RKnee			RAnkle			RBigToe			RSmallToe			RHeel			LHip			LKnee			LAnkle			LBigToe			LSmallToe			LHeel			Neck			Head			Nose			RShoulder			RElbow			RWrist			RThumb			RIndex			RPinky			LShoulder			LElbow			LWrist			LThumb			LIndex			LPinky			
		X1	Y1	Z1	X2	Y2	Z2	X3	Y3	Z3	X4	Y4	Z4	X5	Y5	Z5	X6	Y6	Z6	X7	Y7	Z7	X8	Y8	Z8	X9	Y9	Z9	X10	Y10	Z10	X11	Y11	Z11	X12	Y12	Z12	X13	Y13	Z13	X14	Y14	Z14	X15	Y15	Z15	X16	Y16	Z16	X17	Y17	Z17	X18	Y18	Z18	X19	Y19	Z19	X20	Y20	Z20	X21	Y21	Z21	X22	Y22	Z22	X23	Y23	Z23	X24	Y24	Z24	X25	Y25	Z25	X26	Y26	Z26	X27	Y27	Z27	
288	5.433962264150943	0.2951939135148238	0.7599581182114125	0.9118278847178148	0.277336802941612	0.9778491335706921	1.264455350529569	0.24494738709814465	1.2601621276360533	1.6437775648658475	0.23301643879433334	0.9859628518761571	1.6838955287944986	0.2679946154024736	1.0576808339423767	1.6950668522394607	0.24283625892021463	1.3133702902114763	1.6808833464275519	0.06953580960459994	0.7905928616104135	0.8973114541023589	0.08758044686961154	0.9847144384177594	1.2551977895872213	0.12255389530489748	1.2518923761845195	1.6417457199357772	0.09382058952769091	1.0055912740475157	1.677176698480806	0.05588766581523038	1.0755130797813521	1.6639047828657108	0.13312534685607832	1.3189710086790847	1.6877271083094216	0.21168340183497592	0.5292941202859472	0.335438048894205	0.2192925367297401	0.3852856571800227	0.1293531221788989	0.2128831111149544	0.36875057852147275	0.2643807621601262	0.3788068567535622	0.579367699152293	0.4249749566474397	0.41075060703678873	0.7292145959511899	0.6606091926785586	0.33017969289804194	0.7760697113427899	0.7772556990576849	0.29380650409096287	0.8548055896205674	0.8485601775040494	0.2514333119098362	0.843358028814374	0.850488787245858	0.25102848048519505	0.9170480416224719	0.8426482013463834	0.05445973326130027	0.5881236863645701	0.4108329895285238	0.005781518979279401	0.8151036320307983	0.6189269471802384	0.10861393556551228	0.887820718987565	0.7662646100243224	0.06393130715511398	0.7587209083308293	0.8103814281198076	0.06411182915207637	0.7394662230065195	0.8376488822034598	0.08897141559848981	0.7687666273800278	0.8415115518043299
289	5.452830188679245	0.29525153550536093	0.7598257645675363	0.9117261976121313	0.2773737095122282	0.9778187116013108	1.2645092598014842	0.24496032344789687	1.260058419440871	1.64376277606084	0.2332035065995297	0.98639305868035	1.6841053483304838	0.26817700765602825	1.0580498225222912	1.6951065673279946	0.24276166863498602	1.313586262553015	1.681168013267601	0.0690504700975431	0.7873331312760132	0.8932814102526815	0.08757423680477712	0.984789282256024	1.2552186918136015	0.12259547469599931	1.251704231465834	1.6416816745154292	0.09377913338946361	1.005561494127978	1.6771328222371906	0.05583584082854747	1.075524524791032	1.663961506243281	0.1331873116602102	1.3190076485601898	1.6877170786087734	0.21165744175162027	0.5292509215712056	0.3353852585450899	0.21941851690016767	0.38427042476122486	0.1261977156439464	0.21664572977300117	0.3782105392994376	0.2578786291696685	0.3788040760796111	0.5793560256399618	0.42496389255354344	0.410606794202316	0.7299054397964617	0.6603767758877936	0.3298892624328314	0.7834457683688556	0.7830303697754631	0.29380650409096287	0.8548055896205674	0.8485601775040494	0.2514333119098362	0.843358028814374	0.850488787245858	0.25113134109256313	0.9170616720088105	0.8427732564743844	0.05446504479323404	0.5881006503262667	0.41083602134306063	0.005574077930424735	0.8142920447039256	0.6188670044596274	0.10722522866979403	0.9144012379862525	0.7631478481134625	0.06393130715511398	0.7587209083308293	0.8103814281198076	0.06411182915207637	0.7394662230065195	0.8376488822034598	0.08897141559848981	0.7687666273800278	0.8415115518043299
290	5.471698113207547	0.298618458975173	0.7447405443807829	0.9128793436981035	0.27284057648721805	0.9633255859919853	1.2639439596859614	0.2438857070501576	1.2626905071722	1.6483991908048112	0.23335801836137746	0.9868894598578478	1.6841910231144859	0.2728822536087655	1.0611635310431955	1.6957186431455005	0.2428573669693367	1.3135073488684876	1.6811489441241874	0.06906811010262891	0.7871234129422063	0.8932346417367235	0.08758752661569683	0.9846810481068627	1.2551732162589988	0.12259736215288752	1.2518822486299896	1.6417213140936897	0.09380704939295761	1.0055622348912931	1.677255897934149	0.05594027039072848	1.0757139778511144	1.6639272967222891	0.13323748927009918	1.3191434851825028	1.6877572115598611	0.21170615304070245	0.5291319789511871	0.33538624137549916	0.21927166857034203	0.3827444919019123	0.12680755352654058	0.21294332839688168	0.368488487174624	0.2644356535238179	0.37879081129141334	0.5794413838574367	0.42492875626027987	0.41059214892425766	0.7297548742480231	0.6603935175724682	0.330034462895357	0.7830033974729791	0.7825263178547518	0.29380650409096287	0.8548055896205674	0.8485601775040494	0.2514333119098362	0.843358028814374	0.850488787245858	0.25122556163430326	0.9165475676093857	0.8421971925623482	0.05448938099505207	0.5879531889552927	0.4107722078308615	0.008209429495684067	0.8242840628291862	0.6173879743620012	0.10707390749311582	0.9142791405336637	0.7631025390777336	0.06393130715511398	0.7587209083308293	0.8103814281198076	0.06411182915207637	0.7394662230065195	0.8376488822034598	0.08897141559848981	0.7687666273800278	0.8415115518043299
291	5.490566037735849	0.2986174083529597	0.7445588618906221	0.912886033936844	0.27280634790582203	0.9632945338832167	1.2639245280146925	0.24388274378869487	1.2627813576581453	1.6483984164811119	0.23738371082161208	1.0004118255568766	1.6863565313465974	0.2718444889787714	1.0404358904610385	1.6923334435674589	0.2427522477331043	1.313424758604113	1.6809219270674407	0.06902788894952631	0.7870807700008091	0.8931787617605343	0.08847871348428314	0.9826578699643143	1.2512421669695892	0.1225724057257783	1.2521754485781242	1.6417681315624117	0.09732860398871462	1.0208606613965376	1.6796932638468762	0.05990680636949652	1.0958836603251045	1.6706051260230033	0.13301413806861115	1.318711465817243	1.6876328987207077	0.2116424576032193	0.5293711783340747	0.33546140883597	0.21923982045652743	0.3831765641155959	0.12689414408738783	0.21646204404787323	0.3794250174572396	0.2607825584992837	0.3832721911566464	0.5804385539311391	0.4246648924192439	0.41239042637494416	0.7134627836877213	0.6581649091515961	0.3299271539589081	0.783180803355699	0.7831459916018514	0.29380650409096287	0.8548055896205674	0.8485601775040494	0.2514333119098362	0.843358028814374	0.850488787245858	0.2511564218360913	0.917341556372876	0.8423617457137715	0.05417944861473364	0.5847586197830309	0.40400428962409385	0.007155589433828384	0.8205677844241595	0.6180659206895956	0.10702894381039019	0.9141164495336358	0.7630856293891681	0.06393130715511398	0.7587209083308293	0.8103814281198076	0.06411182915207637	0.7394662230065195	0.8376488822034598	0.08897141559848981	0.7687666273800278	0.8415115518043299
292	5.509433962264151	0.29862030527945926	0.7446196406768804	0.9130452140982562	0.2784492265186532	0.981493343236444	1.2727003421145446	0.24385728684421465	1.2626159750202544	1.6483701789230185	0.23292470090934575	0.9866018421351288	1.684147331659531	0.2716862169104643	1.0403807585317417	1.6923331327205688	0.24268330216352338	1.3133535921216402	1.6809404948342006	0.06961548905125568	0.7906334681138327	0.9011720724319058	0.08761289311816339	0.9846456766057751	1.255257214064804	0.12255135388090782	1.251547141322418	1.6416480405276292	0.09382917571547421	1.0057159832055438	1.6771026743558184	0.05590636527074268	1.0756453859113524	1.663899073717042	0.13300076832589888	1.3182511352096664	1.687518366742687	0.21173179902467396	0.5292835508273454	0.33541757059514754	0.21941306600082888	0.3854081849470725	0.1294311011012574	0.21648406083763946	0.3794283595912492	0.26078640459377944	0.37884245533614963	0.5795718638119354	0.4248755382149813	0.4109294973523844	0.7281122517235327	0.6608272198024181	0.3299441151607879	0.7834254449558006	0.7831496123670021	0.29380650409096287	0.8548055896205674	0.8485601775040494	0.2514333119098362	0.843358028814374	0.850488787245858	0.2505428692526444	0.9254872281425204	0.8495108263434775	0.05753781929335034	0.5970280062389374	0.4006950448968287	0.007402506552739873	0.8214851606680442	0.6184399040783983	0.10713655473290747	0.914189969518325	0.7630079864706011	0.06393130715511398	0.7587209083308293	0.8103814281198076	0.06411182915207637	0.7394662230065195	0.8376488822034598	0.08897141559848981	0.7687666273800278	0.8415115518043299
293	5.528301886792453	0.29867462601054334	0.7448109146772587	0.9130618591405231	0.2739174162300539	0.9670388884974654	1.2721823739037794	0.2438496458274253	1.2627072967204702	1.648412277943434	0.2332682187281704	0.9870330758327915	1.6842932355229059	0.27641781814702227	1.0431832318932461	1.6929395855183318	0.242733022430175	1.3134345743236395	1.681028062610397	0.06958688490934184	0.7907109061214005	0.9011698511231532	0.08760124215303355	0.9846750840167922	1.255307290798673	0.12256740839827476	1.2518668765610919	1.6417634398309398	0.09731447739071059	1.0205199207491022	1.6796864503936746	0.05807011309495694	1.0861533621982016	1.666206062540587	0.13304276148098623	1.318876167453856	1.6877581299847118	0.21170339619376513	0.5292935077146691	0.3354249853007245	0.21940871698379044	0.3855357616858034	0.12939115863425454	0.2166333307559476	0.3784658026229327	0.257728781050599	0.38329004103848435	0.5803179344029116	0.4246617794027935	0.4125092377471341	0.7192006991622744	0.6618144191187251	0.3300109727085446	0.783396390421631	0.7832089336948895	0.29380650409096287	0.8548055896205674	0.8485601775040494	0.2514333119098362	0.843358028814374	0.850488787245858	0.250640149003345	0.9253666015002332	0.8495507238312281	0.05441300713153102	0.587449876208113	0.4069834793517911	0.007277808792573788	0.8210057816085737	0.6183899714306128	0.10710988116562399	0.9136355659100546	0.7630920236009009	0.06393130715511398	0.7587209083308293	0.8103814281198076	0.06411182915207637	0.7394662230065195	0.8376488822034598	0.08897141559848981	0.7687666273800278	0.8415115518043299
294	5.547169811320755	0.2986272811854497	0.7447253918226627	0.9130430629610643	0.2730147532656785	0.9633650673031865	1.2681021131331847	0.24388137478615435	1.2626801347535341	1.6483918530155657	0.23339326914901903	0.9870078998304099	1.6842694006577261	0.27646910663684765	1.0431477634835593	1.6929216314294042	0.24282098950773404	1.3134358872367924	1.6810635663609916	0.06961977461892202	0.7904819666451022	0.9010887654486603	0.08758797473743243	0.9846857892432176	1.2552445878178946	0.122513703989295	1.2519360332632892	1.6418200491117703	0.0972945884588753	1.0205394639017362	1.6797076694501913	0.056015808438704205	1.0759344732179628	1.6639364403790595	0.13314784274142058	1.3190661497310976	1.6877916272310618	0.21174025676851144	0.5292851558152971	0.33542144987611977	0.2193735835010001	0.38531243455424136	0.1293355953720712	0.21653858707738793	0.37931497631936295	0.2607933899290569	0.37881775579362614	0.5794748932778194	0.4249261073931628	0.41056032346821364	0.7299720950599097	0.6603180615040111	0.32998037180983647	0.7829541079608291	0.7831860871141855	0.29380650409096287	0.8548055896205674	0.8485601775040494	0.2514333119098362	0.843358028814374	0.850488787245858	0.2512835369512506	0.9166243856850966	0.8424370166108579	0.05777663551999173	0.5996178564362378	0.40381686609646866	0.014392220058275267	0.8478664275886142	0.6166079824641993	0.1071226547511058	0.9143298605858375	0.7630338614506366	0.06393130715511398	0.7587209083308293	0.8103814281198076	0.06411182915207637	0.7394662230065195	0.8376488822034598	0.08897141559848981	0.7687666273800278	0.8415115518043299
